# xmcd
#
# Track frame offsets: 
#        150
#        11447
#        28689
#        43721
#        56361
#        69301
#        85688
#        100313
#        111500
#        126200
#
# Disc length: 1893 seconds
#
# Revision: 0
# Processed by: cddbd v1.5.2PL0 Copyright (c) Steve Scherf et al.
# Submitted via: ExactAudioCopy v0.95b4
#
DISCID=7c07630a
DTITLE=Olivia Newton-John - If You Love Me, Let Me Know
DYEAR=1974
DGENRE=Country
TTITLE0=Changes
TTITLE1=Country Girl
TTITLE2=Free The People
TTITLE3=God Only Knows
TTITLE4=Home Ain't Home Anymore
TTITLE5=I Honestly Love You
TTITLE6=If You Love Me, Let Me Know
TTITLE7=Mary Skeffington
TTITLE8=River's Too Wide
TTITLE9=You Ain't Got The Right
EXTD=
EXTT0=
EXTT1=
EXTT2=
EXTT3=
EXTT4=
EXTT5=
EXTT6=
EXTT7=
EXTT8=
EXTT9=
PLAYORDER=
